<?xml version="1.0" encoding="UTF-8" standalone="no"?>
<!-- Created with Inkscape (http://www.inkscape.org/) -->

<svg
   xmlns:dc="http://purl.org/dc/elements/1.1/"
   xmlns:cc="http://creativecommons.org/ns#"
   xmlns:rdf="http://www.w3.org/1999/02/22-rdf-syntax-ns#"
   xmlns:svg="http://www.w3.org/2000/svg"
   xmlns="http://www.w3.org/2000/svg"
   xmlns:sodipodi="http://sodipodi.sourceforge.net/DTD/sodipodi-0.dtd"
   xmlns:inkscape="http://www.inkscape.org/namespaces/inkscape"
   width="1024"
   height="1024"
   viewBox="0 0 1024 1024"
   id="svg3341"
   version="1.1"
   inkscape:version="0.91 r13725"
   sodipodi:docname="HealthChannel24IconSource.svg">
  <defs
     id="defs3343" />
  <sodipodi:namedview
     id="base"
     pagecolor="#ffffff"
     bordercolor="#666666"
     borderopacity="1.0"
     inkscape:pageopacity="0.0"
     inkscape:pageshadow="2"
     inkscape:zoom="0.30259198"
     inkscape:cx="355.58293"
     inkscape:cy="258.91157"
     inkscape:document-units="px"
     inkscape:current-layer="layer1"
     showgrid="false"
     units="px"
     inkscape:window-width="1536"
     inkscape:window-height="811"
     inkscape:window-x="-8"
     inkscape:window-y="-8"
     inkscape:window-maximized="1" />
  <metadata
     id="metadata3346">
    <rdf:RDF>
      <cc:Work
         rdf:about="">
        <dc:format>image/svg+xml</dc:format>
        <dc:type
           rdf:resource="http://purl.org/dc/dcmitype/StillImage" />
        <dc:title></dc:title>
      </cc:Work>
    </rdf:RDF>
  </metadata>
  <g
     inkscape:label="Layer 1"
     inkscape:groupmode="layer"
     id="layer1"
     transform="translate(0,-28.362161)">
    <g
       id="logo-logo-8"
       transform="matrix(2.8757393,0,0,2.8757393,493.84344,479.15023)"
       inkscape:export-xdpi="180"
       inkscape:export-ydpi="180">
      <path
         d="m 810.879,1642.35 c 56.676,0 103.641,59.11 103.641,131.98 0,72.06 -46.965,131.17 -103.641,131.17 -57.488,0 -103.641,-59.11 -103.641,-131.17 0,-72.87 46.153,-131.98 103.641,-131.98 l 0,0"
         style="opacity:1;fill:#1f6332;fill-rule:evenodd;stroke:none;stroke-width:1;stroke-linecap:butt;stroke-linejoin:miter;stroke-miterlimit:10;stroke-dasharray:none"
         transform="matrix(0.1784,0,0,-0.1784,-124.48431,230.09722)"
         id="path10-5"
         inkscape:connector-curvature="0" />
      <path
         d="m 823.027,1001.05 c 5.239,0 10.668,0.08 15.965,0.11 -19.801,68.39 -21.551,130.06 -12.73,171.57 50.203,187.85 425.898,38.87 520.628,425.09 -180.56,-62.35 -474.476,127.93 -485.003,-252.62 57.488,125.5 242.913,149.78 343.313,160.31 -201.62,-42.1 -426.708,-201.61 -463.954,-436.42 -3.094,-19.55 -3.848,-42.19 -2.004,-66.75 27.078,-0.82 54.891,-1.29 83.613,-1.29 0.051,0 0.122,0 0.172,0"
         style="opacity:1;fill:#44ba3b;fill-rule:nonzero;stroke:none;stroke-width:1;stroke-linecap:butt;stroke-linejoin:miter;stroke-miterlimit:10;stroke-dasharray:none"
         transform="matrix(0.1784,0,0,-0.1784,-124.49486,230.0757)"
         id="path12-4"
         inkscape:connector-curvature="0" />
      <path
         d="m 270.816,1960.55 c 151.411,-29.95 308.493,-220.23 319.016,-263.14 -15.383,425.08 -307.68,371.64 -467.187,344.93 123.07,-381.37 327.113,-218.62 391.078,-404.04 43.086,-159.28 64.547,-395.51 23.855,-620.32 36.891,-4.93 76.34,-8.8 118.188,-11.59 76.183,366.54 -104.739,800.24 -384.95,954.16"
         style="opacity:1;fill:#44ba3b;fill-rule:nonzero;stroke:none;stroke-width:1;stroke-linecap:butt;stroke-linejoin:miter;stroke-miterlimit:10;stroke-dasharray:none"
         transform="matrix(0.1784,0,0,-0.1784,-124.46567,230.08625)"
         id="path14-0"
         inkscape:connector-curvature="0" />
      <path
         d="m 881.258,898.824 c -5.348,9.824 -10.188,19.621 -14.738,29.395 107.07,11.492 223.65,31.48 349.2,61.523 -137.54,-12.398 -259.138,-18.449 -366.599,-19.308 -37.062,-0.293 -72.473,0.015 -106.168,0.937 -32.937,0.902 -64.422,2.324 -94.242,4.317 -41.984,2.808 -80.996,6.632 -117.035,11.421 -584.7424,77.711 -404.66,403.021 -53.578,534.601 -616.887,-179.06 -537.9378,-550.276 37.812,-600.011 -2.738,-10.113 -5.648,-20.156 -8.68,-30.156 -44.14,-145.609 -119.55,-278.602 -238.843,-372.23 179.14,82.011 291.867,213.878 351.64,366.21 3.981,10.153 7.672,20.411 11.192,30.739 39.219,-0.43 80.269,0.492 123.105,2.863 2.84,-10.051 6.043,-20.187 9.692,-30.371 C 820.469,731.082 975.301,564.441 1282.93,601.902 1067.92,662.664 945.332,781.184 881.258,898.824"
         style="opacity:1;fill:#1f6332;fill-rule:nonzero;stroke:none;stroke-width:1;stroke-linecap:butt;stroke-linejoin:miter;stroke-miterlimit:10;stroke-dasharray:none"
         id="path16-9"
         inkscape:connector-curvature="0"
         transform="matrix(0.1784,0,0,-0.1784,-124.47778,230.06305)" />
    </g>
    <g
       id="text-logo-9"
       transform="matrix(1.2600062,0,0,1.2600062,315.41729,924.71303)"
       inkscape:export-xdpi="180"
       inkscape:export-ydpi="180">
      <text
         x="-240.625"
         y="24.188801"
         xml:space="preserve"
         font-size="77"
         font-style="normal"
         font-weight="bold"
         style="font-style:normal;font-weight:bold;font-size:77px;font-family:Signika;white-space:pre;opacity:1;fill:#44bc3c;fill-rule:nonzero;stroke:none;stroke-width:1;stroke-linecap:butt;stroke-linejoin:miter;stroke-miterlimit:10;stroke-dasharray:none"
         id="text19-3">Health Channel 24</text>
    </g>
  </g>
</svg>
